<?xml version="1.0" encoding="utf-8"?>
<!-- Svg Vector Icons : http://www.onlinewebfonts.com/icon -->
<!DOCTYPE svg PUBLIC "-//W3C//DTD SVG 1.1//EN" "http://www.w3.org/Graphics/SVG/1.1/DTD/svg11.dtd">
<svg version="1.1" xmlns="http://www.w3.org/2000/svg" xmlns:xlink="http://www.w3.org/1999/xlink" x="0px" y="0px" viewBox="0 0 256 256" enable-background="new 0 0 256 256" xml:space="preserve">
<metadata> Svg Vector Icons : http://www.onlinewebfonts.com/icon </metadata>
<g><g><path fill="#000000" d="M112.9,126.9l45.1,28c4.9,3,5.1,10.1,0.3,13.4l-45.1,31.3c-5.3,3.7-12.6-0.1-12.6-6.6v-59.2C100.6,127.4,107.5,123.6,112.9,126.9z M192.4,34.7c4.5,0,8-3.6,8-8c0-4.5-3.6-8-8-8H63.6c-4.5,0-8,3.6-8,8c0,4.5,3.6,8,8,8H192.4z M219.2,68.6c4.5,0,8-3.6,8-8c0-4.5-3.6-8-8-8H36.8c-4.5,0-8,3.6-8,8c0,4.5,3.6,8,8,8H219.2L219.2,68.6z M246,218.6v-114c0-10.4-8.4-18.8-18.8-18.8H28.8c-10.4,0-18.8,8.4-18.8,18.8v114c0,10.4,8.4,18.8,18.8,18.8h198.4C237.6,237.4,246,229,246,218.6z M34.7,220.7c-1.5,0-8-6.6-8-8V110.5c0-1.5,6.5-8,8-8h186.6c1.5,0,8,6.6,8,8v102.2c0,1.5-6.6,8-8,8L34.7,220.7L34.7,220.7z"/></g></g>
</svg>